<svg width="59" height="60" viewBox="0 0 59 60" fill="none" xmlns="http://www.w3.org/2000/svg">
<path d="M59 29.5087C59 13.2115 45.7924 0 29.5 0C13.2076 0 0 13.2115 0 29.5087C0 45.8059 13.2076 59.0174 29.5 59.0174C45.7924 59.0174 59 45.8059 59 29.5087Z" fill="#513E75"/>
<path d="M42.0229 42.5782C41.1439 42.6736 40.2443 42.6902 39.3819 42.6881C32.6553 42.6819 25.9285 42.6757 19.2039 42.6716C17.0875 42.6716 14.7824 42.6031 13.1468 41.2574C11.304 39.7375 10.9205 37.102 10.7712 34.7174C10.5639 31.4495 10.5473 28.1712 10.7173 24.9012C10.8106 23.1055 10.9744 21.2663 11.7476 19.6406C12.3031 18.4732 13.2297 17.424 14.4154 16.8724C15.7939 16.2317 17.2367 16.3457 18.7209 16.3437C22.274 16.3395 25.827 16.3375 29.38 16.3333C33.074 16.3292 36.77 16.3271 40.464 16.3229C42.2094 16.3229 44.0834 16.3582 45.5075 17.368C47.3462 18.6702 47.8457 21.1481 48.0758 23.3896C48.5008 27.518 48.507 31.69 48.0924 35.8185C47.9204 37.5209 47.6343 39.3207 46.5128 40.6125C45.4017 41.894 43.7538 42.3875 42.0249 42.5762L42.0229 42.5782Z" fill="white"/>
<path d="M35.5179 29.5087L25.4932 23.7193V35.298L35.5179 29.5087Z" fill="#513E75"/>
</svg>
