<svg width="59" height="60" viewBox="0 0 59 60" fill="none" xmlns="http://www.w3.org/2000/svg">
<path d="M29.5671 0H29.4328C13.1775 0 0 13.1814 0 29.4415V29.5759C0 45.836 13.1775 59.0174 29.4328 59.0174H29.5671C45.8224 59.0174 59 45.836 59 29.5759V29.4415C59 13.1814 45.8224 0 29.5671 0Z" fill="#513E75"/>
<path d="M44.2635 15.9603C41.5474 14.7135 38.637 13.7954 35.5922 13.2703C35.5364 13.2599 35.4805 13.2847 35.4537 13.3364C35.0795 14.0022 34.664 14.8727 34.3747 15.555C31.1004 15.065 27.8428 15.065 24.6347 15.555C24.3433 14.8562 23.9133 14.0022 23.5371 13.3364C23.5082 13.2868 23.4524 13.262 23.3986 13.2703C20.3559 13.7954 17.4434 14.7135 14.7273 15.9603C14.7046 15.9706 14.6839 15.9872 14.6694 16.0099C9.14626 24.264 7.63313 32.3155 8.3752 40.2678C8.37934 40.3071 8.40001 40.3443 8.43102 40.367C12.0752 43.0446 15.6058 44.6698 19.0702 45.7471C19.126 45.7636 19.1839 45.7429 19.219 45.6975C20.0376 44.5788 20.7693 43.3982 21.3956 42.1555C21.4329 42.0832 21.3956 41.9963 21.3212 41.9674C20.1616 41.527 19.0598 40.9914 17.9974 40.3836C17.9126 40.3339 17.9065 40.214 17.9829 40.1561C18.2062 39.9886 18.4294 39.8149 18.6423 39.6392C18.6816 39.6061 18.7353 39.5999 18.7808 39.6206C25.753 42.8048 33.3019 42.8048 40.1914 39.6206C40.2369 39.5978 40.2906 39.6061 40.3299 39.6371C40.5428 39.8129 40.766 39.9886 40.9913 40.1561C41.0678 40.214 41.0637 40.3339 40.9789 40.3836C39.9185 41.0039 38.8147 41.529 37.653 41.9674C37.5766 41.9963 37.5435 42.0832 37.5807 42.1576C38.2215 43.3961 38.9511 44.5768 39.7552 45.6975C39.7883 45.745 39.8482 45.7657 39.904 45.7491C43.385 44.6719 46.9155 43.0467 50.5597 40.3691C50.5907 40.3463 50.6114 40.3091 50.6155 40.2719C51.5044 31.0791 49.1273 23.0937 44.3172 16.014C44.3048 15.9913 44.2862 15.9727 44.2614 15.9624L44.2635 15.9603ZM22.4333 35.4253C20.3331 35.4253 18.6051 33.4982 18.6051 31.1308C18.6051 28.7633 20.3021 26.8362 22.4333 26.8362C24.5644 26.8362 26.2966 28.7819 26.2615 31.1308C26.2615 33.4982 24.5644 35.4253 22.4333 35.4253ZM36.5905 35.4253C34.4904 35.4253 32.7624 33.4982 32.7624 31.1308C32.7624 28.7633 34.4594 26.8362 36.5905 26.8362C38.7217 26.8362 40.4539 28.7819 40.4187 31.1308C40.4187 33.4982 38.7403 35.4253 36.5905 35.4253Z" fill="white"/>
</svg>
