<svg width="59" height="60" viewBox="0 0 59 60" fill="none" xmlns="http://www.w3.org/2000/svg">
<path d="M29.5672 0H29.4328C13.1775 0 0 13.1814 0 29.4415V29.5759C0 45.836 13.1775 59.0174 29.4328 59.0174H29.5672C45.8225 59.0174 59 45.836 59 29.5759V29.4415C59 13.1814 45.8225 0 29.5672 0Z" fill="#513E75"/>
<path d="M38.6276 12.0071H20.3713C15.3277 12.0071 11.2246 16.1114 11.2246 21.1565V37.8632C11.2246 42.9083 15.3277 47.0127 20.3713 47.0127H38.6276C43.6712 47.0127 47.7743 42.9083 47.7743 37.8632V21.1565C47.7743 16.1114 43.6712 12.0071 38.6276 12.0071ZM14.4513 21.1565C14.4513 17.8917 17.1075 15.2347 20.3713 15.2347H38.6276C41.8915 15.2347 44.5476 17.8917 44.5476 21.1565V37.8632C44.5476 41.1281 41.8915 43.785 38.6276 43.785H20.3713C17.1075 43.785 14.4513 41.1281 14.4513 37.8632V21.1565Z" fill="white"/>
<path d="M29.5051 38.018C34.1952 38.018 38.0131 34.2011 38.0131 29.5075C38.0131 24.8139 34.1973 20.9969 29.5051 20.9969C24.8129 20.9969 20.9971 24.8139 20.9971 29.5075C20.9971 34.2011 24.8129 38.018 29.5051 38.018ZM29.5051 24.2266C32.4176 24.2266 34.7864 26.5962 34.7864 29.5095C34.7864 32.4229 32.4176 34.7924 29.5051 34.7924C26.5926 34.7924 24.2238 32.4229 24.2238 29.5095C24.2238 26.5962 26.5926 24.2266 29.5051 24.2266Z" fill="white"/>
<path d="M38.7914 22.3722C40.0544 22.3722 41.0838 21.3445 41.0838 20.0791C41.0838 18.8137 40.0564 17.7861 38.7914 17.7861C37.5263 17.7861 36.499 18.8137 36.499 20.0791C36.499 21.3445 37.5263 22.3722 38.7914 22.3722Z" fill="white"/>
</svg>
