<svg width="59" height="60" viewBox="0 0 59 60" fill="none" xmlns="http://www.w3.org/2000/svg">
<path d="M59 29.5097C59 44.4135 47.9557 56.7347 33.6083 58.7341C32.2668 58.9202 30.8942 59.0174 29.501 59.0174C27.8929 59.0174 26.3136 58.8892 24.7757 58.6411C10.728 56.379 0 44.1964 0 29.5097C0 13.2124 13.2085 0 29.499 0C45.7894 0 59 13.2124 59 29.5097Z" fill="#513E75"/>
<path d="M33.6056 23.6938V30.1222H41.5556L40.2967 38.7818H33.6056V58.733C32.264 58.9191 30.8915 59.0163 29.4983 59.0163C27.8901 59.0163 26.3108 58.8881 24.7729 58.64V38.7818H17.4409V30.1222H24.7729V22.2567C24.7729 17.3769 28.7272 13.4194 33.6076 13.4194V13.4235C33.6221 13.4235 33.6345 13.4194 33.649 13.4194H41.5577V20.9086H36.3899C34.8541 20.9086 33.6076 22.1554 33.6076 23.6917L33.6056 23.6938Z" fill="white"/>
</svg>
